<?xml version="1.0" encoding="UTF-8"?> <svg width="14px" height="12px" viewBox="0 0 14 12" version="1.1" xmlns="http://www.w3.org/2000/svg" xmlns:xlink="http://www.w3.org/1999/xlink"> <defs> <path d="M13.7071328,5.26740535 L8.76776515,0.151865957 C8.57227039,-0.0506219858 8.25627885,-0.0506219858 8.06078409,0.151865957 C7.86528932,0.353836029 7.86528932,0.681648991 8.06078409,0.884136934 C8.06078409,0.884136934 12.5176647,5.48594733 12.5156648,5.48594733 L0.499986608,5.48594733 C0.223994,5.48594733 0,5.71795397 0,6.00381931 C0,6.29020251 0.223994,6.52169128 0.499986608,6.52169128 L12.5156648,6.52169128 L8.06078409,11.1157336 C7.86528932,11.3182215 7.86528932,11.6460345 8.06078409,11.8485224 C8.25627885,12.0504925 8.57277037,12.0504925 8.76776515,11.8485224 L13.7071328,6.73246518 C14.0976224,6.32748929 14.0976224,5.67186337 13.7071328,5.26740535 L13.7071328,5.26740535 Z" id="path-1"></path> </defs> <g id="Page-1" stroke="none" stroke-width="1" fill="none" fill-rule="evenodd"> <g id="design" transform="translate(-1266.000000, -615.000000)"> <g id="Web-Elements/Buttons/View-all" transform="translate(1266.000000, 615.000000)"> <g id="icon-arrowright"> <g id="Group"> <mask id="mask-2" fill="white"> <use xlink:href="#path-1"></use> </mask> <use id="â†³-âœï¸--Title-Copy" fill="#9A9A9A" xlink:href="#path-1"></use> <g id="â†³-ðŸŽ¨-Color" mask="url(#mask-2)" fill="#E44232"> <g transform="translate(-3.000000, -10.000000)" id="Color"> <rect x="0" y="0" width="23" height="30"></rect> </g> </g> </g> </g> </g> </g> </g> </svg>
