<svg width="24" height="24" viewBox="0 0 24 24" xmlns="http://www.w3.org/2000/svg" xmlns:xlink="http://www.w3.org/1999/xlink"><title>icon-instagram</title><defs><path d="M11.996.807C8.738.807 8.33.82 7.05.874c-1.277.055-2.15.244-2.912.52-.79.287-1.458.67-2.125 1.292C1.347 3.31.936 3.933.63 4.67.333 5.38.13 6.195.072 7.386.014 8.58 0 8.963 0 12.004c0 3.04.014 3.422.072 4.616.058 1.192.26 2.005.558 2.718.306.736.717 1.36 1.383 1.983.667.623 1.336 1.006 2.125 1.292.763.277 1.635.466 2.912.52 1.28.055 1.688.068 4.946.068s3.667-.013 4.946-.067c1.277-.055 2.15-.244 2.912-.52.79-.287 1.458-.67 2.125-1.292.666-.622 1.076-1.246 1.383-1.982.296-.713.5-1.526.557-2.718.06-1.194.072-1.576.072-4.616 0-3.04-.013-3.423-.072-4.617-.058-1.19-.26-2.005-.557-2.718-.307-.737-.717-1.36-1.384-1.984-.668-.622-1.337-1.005-2.126-1.29-.763-.278-1.635-.467-2.912-.522-1.28-.054-1.688-.067-4.946-.067zm0 2.017c3.203 0 3.583.012 4.848.066 1.17.05 1.805.232 2.227.385.56.203.96.446 1.38.838.42.392.68.765.898 1.287.164.395.36.988.413 2.08.06 1.18.07 1.534.07 4.524s-.01 3.343-.07 4.524c-.052 1.092-.248 1.684-.412 2.08-.218.522-.478.894-.897 1.286-.42.392-.82.635-1.38.838-.42.153-1.057.336-2.226.385-1.265.054-1.644.066-4.848.066-3.203 0-3.582-.012-4.847-.066-1.17-.05-1.806-.232-2.23-.385-.56-.203-.958-.446-1.378-.838-.42-.392-.68-.764-.898-1.287-.164-.395-.36-.987-.413-2.08-.056-1.18-.07-1.534-.07-4.523 0-2.99.014-3.344.07-4.525.055-1.092.25-1.685.414-2.08.218-.522.478-.895.898-1.287.42-.392.82-.635 1.38-.838.422-.153 1.057-.335 2.227-.385 1.264-.054 1.643-.066 4.846-.066zm0 12.912c-2.208 0-4-1.67-4-3.732 0-2.062 1.792-3.733 4-3.733 2.21 0 4 1.672 4 3.734 0 2.06-1.79 3.732-4 3.732zm0-9.482c3.402 0 6.16 2.574 6.16 5.75 0 3.175-2.758 5.75-6.16 5.75s-6.16-2.575-6.16-5.75c0-3.176 2.758-5.75 6.16-5.75zm7.843-.227c0 .742-.645 1.343-1.44 1.343-.795 0-1.44-.6-1.44-1.343 0-.742.645-1.344 1.44-1.344.795 0 1.44.602 1.44 1.344z" id="a"/></defs><use fill="#9A9A9A" xlink:href="#a" fill-rule="evenodd"/></svg>