
<svg width="22" height="18" viewBox="0 0 22 18" xmlns="http://www.w3.org/2000/svg" xmlns:xlink="http://www.w3.org/1999/xlink"><title>icon-twitter</title><defs><path d="M21.193.8c-.857.486-1.804.84-2.816 1.028C17.57 1.005 16.42.49 15.143.49c-2.445 0-4.43 1.9-4.43 4.24 0 .333.038.656.114.967C7.145 5.52 3.88 3.833 1.693 1.264c-.382.63-.6 1.358-.6 2.134 0 1.47.782 2.77 1.972 3.53-.726-.02-1.41-.213-2.01-.53v.053c0 2.057 1.53 3.772 3.558 4.16-.372.1-.764.15-1.168.15-.286 0-.564-.026-.834-.076.565 1.685 2.2 2.91 4.14 2.944-1.516 1.138-3.428 1.816-5.504 1.816-.357 0-.71-.02-1.057-.058 1.96 1.202 4.29 1.904 6.792 1.904 8.152 0 12.61-6.46 12.61-12.066 0-.185-.005-.37-.012-.55.865-.6 1.617-1.345 2.21-2.195-.794.336-1.65.564-2.545.666.915-.524 1.617-1.356 1.948-2.345" id="a"/></defs><use fill="#9A9A9A" xlink:href="#a" fill-rule="evenodd"/></svg>