<svg width="14" height="12" viewBox="0 0 14 12" xmlns="http://www.w3.org/2000/svg" xmlns:xlink="http://www.w3.org/1999/xlink"><title>icon-arrowright</title><defs><path d="M13.707 5.267L8.767.152c-.195-.203-.51-.203-.706 0-.195.202-.195.53 0 .732 0 0 4.458 4.602 4.456 4.602H.5c-.276 0-.5.232-.5.518 0 .286.224.518.5.518h12.016L8.06 11.116c-.195.202-.195.53 0 .733.196.2.513.2.708 0l4.94-5.118c.39-.405.39-1.06 0-1.465z" id="a"/></defs><g fill="none" fill-rule="evenodd"><mask id="b" fill="#fff"><use xlink:href="#a"/></mask><use fill="#9A9A9A" xlink:href="#a"/><path d="M0 0h23v30H0z" transform="translate(-3 -10)" mask="url(#b)" fill="#E44232"/></g></svg>