<svg width="22" height="20" viewBox="0 0 22 20" xmlns="http://www.w3.org/2000/svg" xmlns:xlink="http://www.w3.org/1999/xlink"><title>icon-fb</title><defs><path d="M21.5 18.82c0 .593-.32.98-.968.98h-5.45v-7.416h2.772l.42-3.18h-3.19v-1.65c0-.85.25-1.527 1.592-1.527h1.907V3.5c-.583-.037-1.487-.116-2.67-.116-2.463 0-4.33 1.366-4.33 3.877v1.945H8.667v3.18h2.916V19.8H1.48c-.653 0-.98-.387-.98-.98V1.52C.5.925.827.2 1.48.2h19.052c.647 0 .968.726.968 1.32v17.3z" id="a"/></defs><use fill="#9A9A9A" xlink:href="#a" fill-rule="evenodd"/></svg>