<svg width="24" height="17" viewBox="0 0 24 17" xmlns="http://www.w3.org/2000/svg" xmlns:xlink="http://www.w3.org/1999/xlink"><title>icon-youtube</title><defs><path d="M11.995.6h.01s5.038 0 8.397.227c.47.052 1.492.056 2.404.948.72.68.954 2.224.954 2.224S24 5.81 24 7.623v1.7c0 1.812-.24 3.625-.24 3.625s-.234 1.542-.954 2.222c-.912.892-1.935.897-2.404.95-3.36.226-8.402.233-8.402.233s-6.24-.053-8.16-.225c-.534-.094-1.733-.066-2.646-.958-.72-.68-.954-2.223-.954-2.223S0 11.135 0 9.323v-1.7C0 5.81.24 4 .24 4s.234-1.545.954-2.225C2.107.883 3.13.88 3.598.827 6.958.6 11.995.6 11.995.6zM9.52 5.09l.002 6.293 6.484-3.136L9.52 5.09z" id="a"/></defs><use fill="#9A9A9A" xlink:href="#a" fill-rule="evenodd"/></svg>