<?xml version="1.0" encoding="UTF-8"?>
<svg width="127px" height="32px" viewBox="0 0 127 32" version="1.1" xmlns="http://www.w3.org/2000/svg" xmlns:xlink="http://www.w3.org/1999/xlink">
    <!-- Generator: Sketch 47.1 (45422) - http://www.bohemiancoding.com/sketch -->
    <title>logo-todoist</title>
    <desc>Created with Sketch.</desc>
    <defs>
        <polygon id="path-1" points="3.12912632e-06 0 32.0422535 0 32.0422535 31.9999875 3.12912632e-06 31.9999875"></polygon>
    </defs>
    <g id="Page-1" stroke="none" stroke-width="1" fill="none" fill-rule="evenodd">
        <g id="design" transform="translate(-160.000000, -15.000000)">
            <g id="Web-Components/01-Navigation-Bar/Marketing-Pages">
                <g id="logo-todoist" transform="translate(160.000000, 15.000000)">
                    <g id="Wordmark" transform="translate(41.000000, 6.000000)" fill="#E44332">
                        <path d="M13.778169,13.2811252 C13.778169,13.798706 13.8646567,14.3005345 14.0379476,14.7795379 C14.2109229,15.2633635 14.4640729,15.6883584 14.801501,16.059345 C15.1389291,16.4296886 15.5426433,16.726092 16.0154845,16.9472694 C16.4880101,17.1687683 17.0255593,17.28 17.6246599,17.28 C18.2237604,17.28 18.7606783,17.1687683 19.2338352,16.9472694 C19.7060451,16.726092 20.1103906,16.4296886 20.4478187,16.059345 C20.7827216,15.6883584 21.0380812,15.2633635 21.2110565,14.7795379 C21.3818222,14.3005345 21.4683099,13.798706 21.4683099,13.2811252 C21.4683099,12.7635443 21.3818222,12.2617159 21.2110565,11.7801406 C21.0380812,11.2985654 20.7827216,10.8738919 20.4478187,10.5029054 C20.1103906,10.1325618 19.7060451,9.83615833 19.2338352,9.61465943 C18.7606783,9.39316054 18.2237604,9.28 17.6246599,9.28 C17.0255593,9.28 16.4880101,9.39316054 16.0154845,9.61465943 C15.5426433,9.83615833 15.1389291,10.1325618 14.801501,10.5029054 C14.4640729,10.8738919 14.2109229,11.2985654 14.0379476,11.7801406 C13.8646567,12.2617159 13.778169,12.7635443 13.778169,13.2811252 M10.5739437,13.4411317 C10.5739437,12.3792711 10.7625821,11.4153836 11.1408183,10.5491459 C11.5158572,9.68258491 12.0286981,8.94374463 12.6735859,8.32777495 C13.3165554,7.71406866 14.0810208,7.23875347 14.9647442,6.90247606 C15.8500661,6.56846205 16.7878232,6.4 17.7837704,6.4 C18.7771599,6.4 19.717155,6.56846205 20.6005586,6.90247606 C21.4839622,7.23875347 22.2484277,7.71406866 22.8936352,8.32777495 C23.5388428,8.94374463 24.0494456,9.68258491 24.4267226,10.5491459 C24.8043193,11.4153836 24.9929577,12.3792711 24.9929577,13.4411317 C24.9929577,14.5029923 24.8043193,15.4668798 24.4267226,16.3327941 C24.0494456,17.1996785 23.5388428,17.9381954 22.8936352,18.5544885 C22.2484277,19.1681947 21.4839622,19.6435099 20.6005586,19.9775239 C19.717155,20.3138014 18.7771599,20.48 17.7837704,20.48 C16.7878232,20.48 15.8500661,20.3138014 14.9647442,19.9775239 C14.0810208,19.6435099 13.3165554,19.1681947 12.6735859,18.5544885 C12.0286981,17.9381954 11.5158572,17.1996785 11.1408183,16.3327941 C10.7625821,15.4668798 10.5739437,14.5029923 10.5739437,13.4411317" id="Fill-2"></path>
                        <path d="M29.7992958,13.2811252 C29.7992958,13.798706 29.8857834,14.3005345 30.0590744,14.7795379 C30.2320497,15.2633635 30.4851996,15.6883584 30.8223121,16.059345 C31.1597402,16.4296886 31.5637701,16.726092 32.0362957,16.9472694 C32.5091369,17.1687683 33.0463704,17.28 33.6457866,17.28 C34.2445715,17.28 34.781805,17.1687683 35.2546463,16.9472694 C35.7271719,16.726092 36.1315174,16.4296886 36.4683142,16.059345 C36.8038484,15.6883584 37.0592079,15.2633635 37.2321832,14.7795379 C37.402949,14.3005345 37.4894366,13.798706 37.4894366,13.2811252 C37.4894366,12.7635443 37.402949,12.2617159 37.2321832,11.7801406 C37.0592079,11.2985654 36.8038484,10.8738919 36.4683142,10.5029054 C36.1315174,10.1325618 35.7271719,9.83615833 35.2546463,9.61465943 C34.781805,9.39316054 34.2445715,9.28 33.6457866,9.28 C33.0463704,9.28 32.5091369,9.39316054 32.0362957,9.61465943 C31.5637701,9.83615833 31.1597402,10.1325618 30.8223121,10.5029054 C30.4851996,10.8738919 30.2320497,11.2985654 30.0590744,11.7801406 C29.8857834,12.2617159 29.7992958,12.7635443 29.7992958,13.2811252 L29.7992958,13.2811252 Z M37.8402518,17.8504625 L37.7835475,17.8504625 C37.3012383,18.6584983 36.6536489,19.2447141 35.8356242,19.6116559 C35.0198548,19.97637 34.1386821,20.16 33.192106,20.16 C32.1520967,20.16 31.2300067,19.9833715 30.4213253,19.6250224 C29.6145771,19.2673098 28.923815,18.7772054 28.3483947,18.1527996 C27.7729744,17.5306216 27.335771,16.7964197 27.0390397,15.9530582 C26.7419862,15.1116062 26.5950704,14.2033217 26.5950704,13.2320239 C26.5950704,12.260726 26.7513296,11.3524416 27.0686806,10.5087618 C27.3834542,9.6673098 27.8229129,8.93342616 28.389312,8.30902039 C28.955389,7.68684237 29.6374521,7.19673794 30.434857,6.83902536 C31.2345172,6.48067628 32.1066688,6.30181999 33.0513117,6.30181999 C33.6834364,6.30181999 34.2404922,6.36674291 34.7234457,6.49404276 C35.2057548,6.62388861 35.6313596,6.78746892 36.0031598,6.99114868 C36.3743155,7.1926007 36.6897335,7.40741919 36.950058,7.63560418 C37.2084494,7.86569866 37.4236682,8.08974639 37.5889485,8.30902039 L37.6727162,8.30902039 L37.6727162,1.03765291 C37.6727162,0.708901044 37.9372292,0.32 38.4011738,0.32 L40.2878822,0.32 C40.7244413,0.32 41.0140845,0.682486325 41.0140845,1.03765291 L41.0140845,19.112004 C41.0140845,19.5712382 40.6200537,19.8309299 40.2878822,19.8309299 L38.5703203,19.8309299 C38.1617913,19.8309299 37.8402518,19.4910393 37.8402518,19.113277 L37.8402518,17.8504625 Z" id="Fill-4"></path>
                        <path d="M46.4612676,13.2811252 C46.4612676,13.798706 46.5477553,14.3005345 46.7210462,14.7795379 C46.8940215,15.2633635 47.1471715,15.6883584 47.4849152,16.059345 C47.8220277,16.4296886 48.2260576,16.726092 48.6985831,16.9472694 C49.1711087,17.1687683 49.7086579,17.28 50.3077584,17.28 C50.906859,17.28 51.4437769,17.1687683 51.9169338,16.9472694 C52.389775,16.726092 52.7934892,16.4296886 53.1309173,16.059345 C53.4661359,15.6883584 53.7211797,15.2633635 53.894155,14.7795379 C54.0652365,14.3005345 54.1514085,13.798706 54.1514085,13.2811252 C54.1514085,12.7635443 54.0652365,12.2617159 53.894155,11.7801406 C53.7211797,11.2985654 53.4661359,10.8738919 53.1309173,10.5029054 C52.7934892,10.1325618 52.389775,9.83615833 51.9169338,9.61465943 C51.4437769,9.39316054 50.906859,9.28 50.3077584,9.28 C49.7086579,9.28 49.1711087,9.39316054 48.6985831,9.61465943 C48.2260576,9.83615833 47.8220277,10.1325618 47.4849152,10.5029054 C47.1471715,10.8738919 46.8940215,11.2985654 46.7210462,11.7801406 C46.5477553,12.2617159 46.4612676,12.7635443 46.4612676,13.2811252 M43.2570423,13.4411317 C43.2570423,12.3792711 43.4456724,11.4153836 43.8238917,10.5491459 C44.198914,9.68258491 44.7117321,8.94374463 45.3565914,8.32777495 C45.9995323,7.71406866 46.7639639,7.23875347 47.647648,6.90247606 C48.5329307,6.56846205 49.4706462,6.4 50.4665493,6.4 C51.4598947,6.4 52.3998481,6.56846205 53.2832126,6.90247606 C54.166577,7.23875347 54.9310086,7.71406866 55.5761875,8.32777495 C56.2213664,8.94374463 56.7319466,9.68258491 57.1092068,10.5491459 C57.4867868,11.4153836 57.6760563,12.3792711 57.6760563,13.4411317 C57.6760563,14.5029923 57.4867868,15.4668798 57.1092068,16.3327941 C56.7319466,17.1996785 56.2213664,17.9381954 55.5761875,18.5544885 C54.9310086,19.1681947 54.166577,19.6435099 53.2832126,19.9775239 C52.3998481,20.3138014 51.4598947,20.48 50.4665493,20.48 C49.4706462,20.48 48.5329307,20.3138014 47.647648,19.9775239 C46.7639639,19.6435099 45.9995323,19.1681947 45.3565914,18.5544885 C44.7117321,17.9381954 44.198914,17.1996785 43.8238917,16.3327941 C43.4456724,15.4668798 43.2570423,14.5029923 43.2570423,13.4411317" id="Fill-6"></path>
                        <path d="M59.278169,1.92 C59.278169,1.40382452 59.471891,0.957068938 59.8590221,0.572636992 C60.2486569,0.190981842 60.7393776,0 61.333375,0 C61.9276854,0 62.4290468,0.182342921 62.8343295,0.547028764 C63.2389864,0.911406074 63.443662,1.36896031 63.443662,1.92 C63.443662,2.47103969 63.2389864,2.92859393 62.8343295,3.29327977 C62.4290468,3.65765708 61.9276854,3.84 61.333375,3.84 C60.7393776,3.84 60.2486569,3.64901816 59.8590221,3.26520328 C59.471891,2.8832396 59.278169,2.43648401 59.278169,1.92" id="Fill-8"></path>
                        <path d="M73.0352089,10.4511728 C72.7064628,10.4511728 72.4639608,10.1979947 72.4222708,10.0877345 C72.1476262,9.35730118 71.2737279,9.08310575 70.5681808,9.08310575 C69.4552812,9.08310575 68.5817012,9.60724584 68.5817012,10.5084046 C68.5817012,11.3804625 69.4269575,11.5583015 69.9488778,11.71868 C70.5223536,11.8952256 71.616795,12.1377334 72.2201858,12.2816213 C72.8337604,12.4284193 73.4050085,12.6434429 73.9390221,12.9253986 C75.6909557,13.8491914 75.9401408,15.3029445 75.9401408,16.1785592 C75.9401408,19.4084391 72.7904792,20.48 70.6035059,20.48 C68.9180852,20.48 65.7512384,20.2206784 65.0558751,16.9552307 C64.9880891,16.6377072 65.2652797,16.1491349 65.7735155,16.1491349 L67.5948264,16.1491349 C67.9534874,16.1491349 68.1950347,16.4149234 68.2653666,16.6234801 C68.4995943,17.2795444 69.2436489,17.7752302 70.4981671,17.7752302 C71.8440213,17.7752302 72.6396315,17.2329829 72.6396315,16.5116032 C72.6396315,16.0456649 72.3793078,15.6304917 72.0397414,15.3967142 C71.0188144,14.6934417 68.4948206,14.6138992 67.1247798,13.8731188 C66.5999954,13.5895464 65.2831014,12.9412424 65.2831014,10.7311884 C65.2831014,7.68496773 68.0088619,6.4 70.4033304,6.4 C73.9348849,6.4 75.231093,8.6672858 75.3771671,9.50733264 C75.4580011,9.97100746 75.2024511,10.4511728 74.6888051,10.4511728 L73.0352089,10.4511728 Z" id="Fill-10"></path>
                        <path d="M76.2605634,8.6252353 L76.2605634,7.24954413 C76.2605634,6.92141822 76.523443,6.52657657 76.9893387,6.52657657 L78.7878519,6.52657657 L78.7878519,3.14909277 C78.7878519,2.78760899 79.0367417,2.56757538 79.2251171,2.48674671 C79.3363855,2.4386344 80.342681,2.00594441 81.1462859,1.66049806 C81.7075079,1.43308723 82.1623417,1.88887113 82.1623417,2.32829685 L82.1623417,6.52657657 L85.1392586,6.52657657 C85.5989727,6.52657657 85.8732394,6.92238046 85.8732394,7.24954413 L85.8732394,8.62715979 C85.8732394,9.02617118 85.5111292,9.35205185 85.139584,9.35205185 L82.1623417,9.35205185 L82.1623417,15.17332 C82.1623417,15.838232 82.1434717,16.3581657 82.4008204,16.7424226 C82.6373471,17.0946047 82.984166,17.2251494 83.6791053,17.2251494 C83.8782171,17.2251494 84.0561814,17.192433 84.2064913,17.1420755 C84.6473353,16.9932481 84.9769109,17.2472811 85.0885046,17.460579 C85.3084386,17.879156 85.5596058,18.3394304 85.735618,18.66916 C85.929199,19.0312853 85.7736835,19.4954087 85.419707,19.6644433 C84.8487245,19.9380419 84.0581335,20.16 82.9734296,20.16 C82.0744983,20.16 81.5653316,20.0628131 80.9956506,19.8687602 C80.4240175,19.6747072 79.8816655,19.2635074 79.5546927,18.8664205 C79.2254424,18.4696544 79.062444,17.9381738 78.9410899,17.3470339 C78.8171331,16.7565356 78.7878519,16.0393415 78.7878519,15.2615259 L78.7878519,9.35205185 L76.9942188,9.35205185 C76.523443,9.35205185 76.2605634,8.95047448 76.2605634,8.6252353" id="Fill-12"></path>
                        <path d="M0.320422535,8.6252353 L0.320422535,7.24954413 C0.320422535,6.92141822 0.576473246,6.52657657 1.03026609,6.52657657 L3.03208829,6.52657657 L3.03208829,3.14909277 C3.03208829,2.78760899 3.27419565,2.56757538 3.45767753,2.48674671 C3.56637232,2.4386344 4.54620994,2.00594441 5.32893922,1.66049806 C5.87558213,1.43308723 6.31860057,1.88887113 6.31860057,2.32829685 L6.31860057,6.52657657 L9.21850162,6.52657657 C9.66595658,6.52657657 9.93309859,6.92238046 9.93309859,7.24954413 L9.93309859,8.62715979 C9.93309859,9.02617118 9.58039508,9.35205185 9.21850162,9.35205185 L6.31860057,9.35205185 L6.31860057,15.17332 C6.31860057,15.838232 6.30022069,16.3581657 6.55120109,16.7424226 C6.78126645,17.0946047 7.11907593,17.2251494 7.79596246,17.2251494 C7.98990186,17.2251494 8.16324312,17.192433 8.30964836,17.1420755 C8.73904033,16.9932481 9.0600544,17.2472811 9.16906609,17.460579 C9.38296984,17.879156 9.62792924,18.3394304 9.79905224,18.66916 C9.98760444,19.0312853 9.83612889,19.4954087 9.49134774,19.6644433 C8.93519799,19.9380419 8.16546138,20.16 7.10893531,20.16 C6.23303907,20.16 5.73709926,20.0628131 5.18253399,19.8687602 C4.62543355,19.6747072 4.09748741,19.2635074 3.7786916,18.8664205 C3.45799442,18.4696544 3.29923031,17.9381738 3.18102868,17.3470339 C3.06060879,16.7565356 3.03208829,16.0393415 3.03208829,15.2615259 L3.03208829,9.35205185 L1.03501951,9.35205185 C0.576473246,9.35205185 0.320422535,8.95047448 0.320422535,8.6252353" id="Fill-14"></path>
                        <path d="M60.6157191,19.84 L62.4265344,19.84 C62.8099539,19.84 63.1232394,19.5192052 63.1232394,19.1265955 L63.1232394,7.43340455 C63.1232394,7.04079477 62.8099539,6.72 62.4265344,6.72 L60.6157191,6.72 C60.2322996,6.72 59.9190141,7.04079477 59.9190141,7.43340455 L59.9190141,19.1265955 C59.9190141,19.5192052 60.2322996,19.84 60.6157191,19.84" id="Fill-16"></path>
                    </g>
                    <g id="Logo">
                        <g id="Group-3">
                            <mask id="mask-2" fill="white">
                                <use xlink:href="#path-1"></use>
                            </mask>
                            <g id="Clip-2"></g>
                            <path d="M28.036975,-1.25e-05 L4.00528482,-1.25e-05 C1.80237989,-1.25e-05 3.12912632e-06,1.7999875 3.12912632e-06,3.9999875 L3.12912632e-06,27.9999875 C3.12912632e-06,30.1999875 1.80237989,31.9999875 4.00528482,31.9999875 L28.036975,31.9999875 C30.2398799,31.9999875 32.0422567,30.1999875 32.0422567,27.9999875 L32.0422567,3.9999875 C32.0422567,1.7999875 30.2398799,-1.25e-05 28.036975,-1.25e-05" id="Fill-1" fill="#E44332" mask="url(#mask-2)"></path>
                        </g>
                        <path d="M6.7915541,15.1570993 C7.35311615,14.8301858 19.3807831,7.83925599 19.6567831,7.67822957 C19.9322552,7.51764218 19.9460397,7.02487311 19.637876,6.84722663 C19.3293708,6.66961151 18.743779,6.33357274 18.5258353,6.20478296 C18.3040419,6.07408031 17.9050373,6.00139107 17.5350298,6.21666787 C17.3814136,6.30619668 7.10223253,12.2761218 6.75864522,12.4733674 C6.34737739,12.7094977 5.83850058,12.7125395 5.42862983,12.4729911 C5.10503621,12.2837733 -6.6613246e-15,9.28745893 -6.6613246e-15,9.28745893 L-6.6613246e-15,11.9954623 C1.32144667,12.7726853 4.60693241,14.705504 5.40320306,15.1595452 C5.87842588,15.4305463 6.33334455,15.4238669 6.7915541,15.1570993" id="Fill-4" fill="#FFFFFF"></path>
                        <path d="M6.7915541,20.2770874 C7.35311615,19.9501739 19.3807831,12.9592748 19.6567831,12.798217 C19.9322552,12.6376296 19.9460397,12.1448919 19.637876,11.9672454 C19.3293708,11.7895989 18.743779,11.4535601 18.5258353,11.3247703 C18.3040419,11.1940676 17.9050373,11.1214098 17.5350298,11.3366552 C17.3814136,11.426184 7.10223253,17.396141 6.75864522,17.5933867 C6.34737739,17.8294856 5.83850058,17.8325587 5.42862983,17.592979 C5.10503621,17.4037612 -6.6613246e-15,14.4074465 -6.6613246e-15,14.4074465 L-6.6613246e-15,17.1154502 C1.32144667,17.8927045 4.60693241,19.8254921 5.40320306,20.2795333 C5.87842588,20.5505658 6.33334455,20.543855 6.7915541,20.2770874" id="Fill-6" fill="#FFFFFF"></path>
                        <path d="M6.7915541,25.7170993 C7.35311615,25.3901858 19.3807831,18.3992874 19.6567831,18.2382296 C19.9322552,18.0776422 19.9460397,17.5848731 19.637876,17.4072266 C19.3293708,17.2296115 18.743779,16.8935727 18.5258353,16.764783 C18.3040419,16.6340803 17.9050373,16.5613911 17.5350298,16.7766679 C17.3814136,16.8661967 7.10223253,22.8361218 6.75864522,23.0333674 C6.34737739,23.2694977 5.83850058,23.2725395 5.42862983,23.0329911 C5.10503621,22.8437733 -6.6613246e-15,19.8474589 -6.6613246e-15,19.8474589 L-6.6613246e-15,22.5554623 C1.32144667,23.3326853 4.60693241,25.265504 5.40320306,25.7195452 C5.87842588,25.9905463 6.33334455,25.9838669 6.7915541,25.7170993" id="Fill-8" fill="#FFFFFF"></path>
                    </g>
                </g>
            </g>
        </g>
    </g>
</svg>